<svg xmlns="http://www.w3.org/2000/svg" xmlns:xlink="http://www.w3.org/1999/xlink" version="1.1" id="레이어_1" x="0px" y="0px" width="1000px" height="1000px" viewBox="0 0 1000 1000" enable-background="new 0 0 1000 1000" xml:space="preserve">
<g>
	<rect x="545.592" y="159.742" width="65.857" height="633.236"/>
	<polygon points="231.51,539.676 403.748,539.676 403.748,792.979 469.605,792.979 469.605,473.823 231.51,473.823  "/>
	<path d="M298.075,409.789c35.068,0,63.495-28.432,63.495-63.49c0-35.082-28.432-63.491-63.495-63.491   c-35.077,0-63.491,28.414-63.491,63.491C234.584,381.357,262.998,409.789,298.075,409.789z"/>
	<path d="M297.666,600.27c-35.073,0-63.491,28.451-63.491,63.495c0,35.082,28.418,63.485,63.491,63.485   c35.068,0,63.49-28.403,63.49-63.485C361.156,628.721,332.733,600.27,297.666,600.27z"/>
	<path d="M500,0C223.856,0,0,223.856,0,500c0,276.145,223.856,500,500,500c276.135,0,500-223.855,500-500   C1000,223.856,776.135,0,500,0z M500,976.19c-262.988,0-476.19-213.188-476.19-476.186C23.81,237.002,237.012,23.81,500,23.81   c262.983,0,476.19,213.193,476.19,476.195C976.19,763.002,762.983,976.19,500,976.19z"/>
	<path d="M710.956,282.813c-35.082,0-63.485,28.395-63.485,63.477c0,35.059,28.403,63.486,63.485,63.486   c35.063,0,63.505-28.427,63.505-63.486C774.461,311.207,746.02,282.813,710.956,282.813z"/>
	<path d="M710.956,600.27c-35.082,0-63.505,28.451-63.505,63.495c0,35.082,28.423,63.485,63.505,63.485   c35.044,0,63.485-28.403,63.485-63.485C774.441,628.721,746.02,600.27,710.956,600.27z"/>
	<path fill="#FFFFFF" d="M500,23.81c-262.988,0-476.19,213.193-476.19,476.195C23.81,763.002,237.012,976.19,500,976.19   c262.983,0,476.19-213.188,476.19-476.186C976.19,237.002,762.983,23.81,500,23.81z M298.075,282.808   c35.063,0,63.495,28.409,63.495,63.491c0,35.059-28.427,63.49-63.495,63.49c-35.077,0-63.491-28.432-63.491-63.49   C234.584,311.221,262.998,282.808,298.075,282.808z M297.666,727.25c-35.073,0-63.491-28.403-63.491-63.485   c0-35.044,28.418-63.495,63.491-63.495c35.068,0,63.49,28.451,63.49,63.495C361.156,698.847,332.733,727.25,297.666,727.25z    M469.605,792.979h-65.857V539.676H231.51v-65.853h238.095V792.979z M611.449,792.979h-65.857V159.742h65.857V792.979z    M710.956,727.25c-35.082,0-63.505-28.403-63.505-63.485c0-35.044,28.423-63.495,63.505-63.495   c35.063,0,63.485,28.451,63.485,63.495C774.441,698.847,746,727.25,710.956,727.25z M710.956,409.775   c-35.082,0-63.485-28.427-63.485-63.486c0-35.082,28.403-63.477,63.485-63.477c35.063,0,63.505,28.395,63.505,63.477   C774.461,381.348,746.02,409.775,710.956,409.775z"/>
</g>
</svg>
